<?xml version="1.0" encoding="utf-8"?>
<!-- Generator: Adobe Illustrator 15.1.0, SVG Export Plug-In . SVG Version: 6.00 Build 0)  -->
<!DOCTYPE svg PUBLIC "-//W3C//DTD SVG 1.1//EN" "http://www.w3.org/Graphics/SVG/1.1/DTD/svg11.dtd">
<svg version="1.1" id="Layer_1" xmlns="http://www.w3.org/2000/svg" xmlns:xlink="http://www.w3.org/1999/xlink" x="0px" y="0px"
	 width="595.279px" height="841.891px" viewBox="0 0 595.279 841.891" enable-background="new 0 0 595.279 841.891"
	 xml:space="preserve">
<g>
	<g id="Icon-Pointer" transform="translate(232.000000, 478.000000)">
		<path id="Fill-173" fill="#134563" d="M300.696,34.614L158.004,143.537c-6.654,5.079-15.78,3.854-20.86-2.801
			c-14.108-18.482-30.881-22.062-56.605-28.168c-14.166-3.229-30.197-7.371-47.927-13.731
			C-17.224,79.539-68.79,53.374-85.643,40.495c-16.854-12.879-21.232-24.748-21.312-34.049
			c-0.469-11.347,5.582-21.813,15.935-29.715c14.047-10.723,37.862-10.181,62.284-4.248l-93.12-121.992
			c-15.238-19.962-10.824-47.905,8.396-62.578c19.225-14.674,47.905-10.824,62.578,8.399l37.812,49.536
			c2.566-4.3,5.698-7.861,10.137-11.248c12.568-9.594,28.738-11.405,42.729-6.873c2.918-6.908,7.704-12.902,14.355-17.981
			c16.269-12.416,38.78-12.049,53.766-0.083c2.565-4.301,6.438-8.427,11.612-12.377c19.963-15.238,47.904-10.823,62.578,8.4
			l27.089,35.488c23.142,30.313,36.414,59.965,48.56,88.141c12.71,28.911,23.727,55.606,45.173,83.702
			C308.01,19.67,307.349,29.535,300.696,34.614L300.696,34.614z M151.772,110.849l119.773-91.428
			c-18.274-27.006-29.468-52.396-40.656-77.788c-12.146-28.175-24.465-55.044-45.348-82.4l-28.782-37.707
			c-5.079-6.654-14.205-7.879-20.858-2.8c-6.654,5.08-7.88,14.206-2.801,20.86l10.723,14.047c5.079,6.654,3.855,15.781-2.799,20.86
			c-6.654,5.079-15.78,3.854-20.859-2.8l-28.78-37.706c-5.079-6.654-14.206-7.88-20.86-2.8c-6.653,5.079-7.878,14.206-2.799,20.86
			l19.753,25.876c5.079,6.654,3.854,15.781-2.801,20.86c-6.653,5.079-15.779,3.854-20.858-2.799l-28.783-37.708
			c-5.078-6.654-14.205-7.879-20.856-2.8c-6.655,5.08-7.881,14.205-2.803,20.859l19.756,25.877c5.079,6.654,3.854,15.78-2.803,20.86
			c-6.652,5.079-15.778,3.854-20.857-2.8L-76.054-189.15c-5.08-6.654-14.205-7.878-20.859-2.799
			c-6.652,5.079-7.878,14.205-2.799,20.859L37.99,9.31c5.078,6.654,3.854,15.78-2.801,20.859c-6.654,5.08-15.78,3.854-20.859-2.799
			l-7.337-9.612C-24.239-1.696-65.957-7.295-73.351-1.651c-2.958,2.26-3.872,4.125-2.918,6.907c0.39,2.043,2.472,6.305,7.899,10.353
			C-55.077,25.354-7.246,49.69,44.455,69.902c16.427,6.187,30.592,9.415,44.758,12.643
			C112.327,88.301,132.839,93.708,151.772,110.849L151.772,110.849z"/>
	</g>
</g>
</svg>
